<?xml version="1.0" encoding="UTF-8"?>
<svg version="1.1" xmlns="http://www.w3.org/2000/svg" width="333" height="333">
<path d="M0 0 C50.16 0 100.32 0 152 0 C150.50729464 4.47811607 149.44518218 7.22496092 147.015625 11.02734375 C146.41758057 11.97206543 145.81953613 12.91678711 145.20336914 13.89013672 C144.55875732 14.8957666 143.91414551 15.90139648 143.25 16.9375 C141.87773149 19.10472535 140.5066655 21.27271252 139.13671875 23.44140625 C138.44239746 24.53855957 137.74807617 25.63571289 137.03271484 26.76611328 C133.99128626 31.60478287 131.02292989 36.48649088 128.0625 41.375 C121.11163239 52.83379365 114.09015181 64.24830334 107.05859375 75.65771484 C104.96408643 79.05830844 102.87219081 82.46049429 100.78125 85.86328125 C93.56551387 97.6037836 86.33225667 109.33184155 79 121 C76.19464697 120.66653638 75.2091805 120.25580966 73.39111328 118.0324707 C72.87274902 117.17226318 72.35438477 116.31205566 71.8203125 115.42578125 C71.22855225 114.45946777 70.63679199 113.4931543 70.02709961 112.49755859 C69.39940674 111.44648926 68.77171387 110.39541992 68.125 109.3125 C66.77567226 107.10229491 65.4253913 104.89267152 64.07421875 102.68359375 C63.39278809 101.56194824 62.71135742 100.44030273 62.00927734 99.28466797 C59.04685961 94.44185287 55.99730979 89.65665848 52.9375 84.875 C51.77981033 83.05998358 50.62225835 81.24487934 49.46484375 79.4296875 C48.89362793 78.53475586 48.32241211 77.63982422 47.73388672 76.71777344 C44.81837438 72.14786589 41.90954605 67.57370747 39 63 C37.83336492 61.16664656 36.66669827 59.33331322 35.5 57.5 C28.5 46.5 28.5 46.5 26.74755859 43.74609375 C25.58911432 41.92572756 24.43058664 40.10541444 23.27197266 38.28515625 C20.22879245 33.50387339 17.18736893 28.72148465 14.1484375 23.9375 C13.51679687 22.94363281 12.88515625 21.94976562 12.234375 20.92578125 C11.02810836 19.02768521 9.82234856 17.12926695 8.6171875 15.23046875 C8.070625 14.37066406 7.5240625 13.51085937 6.9609375 12.625 C6.19668457 11.42230469 6.19668457 11.42230469 5.41699219 10.1953125 C4.17618993 8.2729669 2.89956353 6.38386477 1.6015625 4.5 C0 2 0 2 0 0 Z " fill="#C0494A" transform="translate(89,183)"/>
<path d="M0 0 C0.99 0 1.98 0 3 0 C4.46362305 1.80639648 4.46362305 1.80639648 6.01171875 4.37109375 C6.88872437 5.80219482 6.88872437 5.80219482 7.78344727 7.26220703 C8.41178467 8.31005371 9.04012207 9.35790039 9.6875 10.4375 C11.042892 12.65318781 12.39970781 14.86800515 13.7578125 17.08203125 C14.10693192 17.65403259 14.45605133 18.22603394 14.81575012 18.81536865 C18.4770414 24.80812847 22.26308674 30.71902265 26.0625 36.625 C27.40516676 38.7173075 28.74761595 40.80975463 30.08984375 42.90234375 C30.7432373 43.92054199 31.39663086 44.93874023 32.06982422 45.98779297 C36.82427963 53.40753378 41.54580515 60.84830993 46.2734375 68.28515625 C48.03526428 71.05544949 49.79865362 73.82474226 51.5625 76.59375 C54.47917482 81.1725987 57.39307078 85.75320465 60.30517578 90.33496094 C61.4354337 92.11224349 62.56661952 93.88893629 63.69873047 95.66503906 C65.32240336 98.21266478 66.94278886 100.76235423 68.5625 103.3125 C69.03896973 104.05846436 69.51543945 104.80442871 70.00634766 105.57299805 C73.2146976 110.63433843 76.0783083 115.74095493 79 121 C28.84 121 -21.32 121 -73 121 C-71.41697929 117.04244823 -69.84591768 113.89566522 -67.6484375 110.30078125 C-66.97031006 109.18751465 -66.29218262 108.07424805 -65.59350586 106.92724609 C-64.85411506 105.72226252 -64.11461008 104.517349 -63.375 103.3125 C-62.60721843 102.05567526 -61.83972612 100.79867376 -61.07250977 99.54150391 C-58.72061079 95.69088986 -56.360982 91.84504941 -54 88 C-53.29702176 86.85433924 -52.59405892 85.70866904 -51.89111328 84.56298828 C-47.92965565 78.10987857 -43.95876571 71.66262284 -39.98388672 65.21777344 C-36.65229432 59.81408309 -33.32640693 54.40688339 -30 49 C-26.24952731 42.9042669 -22.4987963 36.8086962 -18.74407959 30.71557617 C-17.30093592 28.3735528 -15.85821678 26.03126805 -14.41552734 23.68896484 C-13.41154372 22.05931709 -12.40695513 20.43004209 -11.40234375 18.80078125 C-10.47228516 17.29064453 -10.47228516 17.29064453 -9.5234375 15.75 C-8.93014648 14.7909375 -8.33685547 13.831875 -7.72558594 12.84375 C-6.56009644 10.92303385 -5.42321912 8.98470534 -4.31347656 7.03125 C-3.5279541 5.65453125 -3.5279541 5.65453125 -2.7265625 4.25 C-2.04327881 3.02023438 -2.04327881 3.02023438 -1.34619141 1.765625 C-0.90194824 1.18296875 -0.45770508 0.6003125 0 0 Z " fill="#BF4849" transform="translate(169,37)"/>
<path d="M0 0 C4.87362847 0.45336079 7.39042389 1.7089159 11 5 C9.68500755 8.576336 8.10916816 11.56812159 5.97265625 14.71875 C5.35559814 15.63527344 4.73854004 16.55179688 4.1027832 17.49609375 C3.42948975 18.48738281 2.75619629 19.47867188 2.0625 20.5 C0.59787962 22.67636895 -0.86574765 24.85337615 -2.328125 27.03125 C-2.90067268 27.8826355 -2.90067268 27.8826355 -3.48478699 28.7512207 C-7.77177021 35.13294994 -11.9814162 41.56478688 -16.1875 48 C-16.98424525 49.2181306 -17.78103935 50.43622924 -18.57788086 51.65429688 C-19.79923271 53.52136211 -21.02052459 55.38846634 -22.24156189 57.2557373 C-26.54464264 63.83541876 -30.85887776 70.40776559 -35.17367554 76.97976685 C-42.02245344 87.41170003 -48.86853409 97.84540305 -55.70874023 108.28295898 C-56.80370938 109.95372098 -57.89891671 111.62432687 -58.99414062 113.29492188 C-66.34772047 124.51809479 -73.6702812 135.76109785 -81 147 C-15.33 147 50.34 147 118 147 C111.25502977 159.36577875 111.25502977 159.36577875 108.14453125 163.9609375 C107.44996826 164.99371826 106.75540527 166.02649902 106.03979492 167.09057617 C105.3047876 168.17443604 104.56978027 169.2582959 103.8125 170.375 C102.19810604 172.77311944 100.58743858 175.17373533 98.9765625 177.57421875 C98.56462143 178.187173 98.15268036 178.80012726 97.72825623 179.43165588 C93.32948319 185.98304624 89.00445373 192.58202302 84.6875 199.1875 C83.89822805 200.39439118 83.10892115 201.6012595 82.31958008 202.80810547 C81.11529362 204.64952 79.91109131 206.49098924 78.70716858 208.3326416 C74.42286264 214.88555661 70.12637824 221.4304637 65.82943726 227.97509766 C57.90061693 240.05170133 49.97739958 252.13196561 42.06298828 264.21801758 C41.29200051 265.3953505 40.5210044 266.57267797 39.75 267.75 C39.36810516 268.33315475 38.98621033 268.91630951 38.59274292 269.51713562 C36.05911553 273.38519821 33.52268756 277.25141289 30.98471069 281.11662292 C29.20893411 283.82117989 27.43393954 286.52624966 25.65899658 289.23135376 C24.80876005 290.52667419 23.95813866 291.82174209 23.1071167 293.11654663 C21.93241568 294.9038831 20.7590347 296.69207938 19.5859375 298.48046875 C18.58119385 300.01030396 18.58119385 300.01030396 17.55615234 301.57104492 C16.01397005 303.88377679 16.01397005 303.88377679 15 306 C10.48521602 305.46884894 7.65333143 303.63379708 4 301 C5.28459023 297.54298015 6.77828374 294.57524992 8.80859375 291.5 C9.3804541 290.62867432 9.95231445 289.75734863 10.54150391 288.85961914 C11.16718262 287.91594482 11.79286133 286.97227051 12.4375 286 C13.09927246 284.99380615 13.76104492 283.9876123 14.44287109 282.95092773 C15.87772007 280.76940555 17.31431194 278.58902894 18.75244141 276.40966797 C21.00292454 272.99826114 23.24297622 269.58009349 25.48046875 266.16015625 C26.24682485 264.98893143 27.01318228 263.81770748 27.77954102 262.64648438 C28.16441681 262.05826904 28.5492926 261.47005371 28.9458313 260.86401367 C37.00245848 248.55523716 45.07778272 236.25867844 53.15161133 223.96118164 C57.43548352 217.43570416 61.71610051 210.90813884 65.98828125 204.375 C66.80858223 203.12108621 67.6288946 201.86717988 68.44921875 200.61328125 C69.93602832 198.34057802 71.4215755 196.06706906 72.90625 193.79296875 C80.52747345 182.1427806 88.27654259 170.58518612 96 159 C30.33 158.67 -35.34 158.34 -103 158 C-98.42236935 150.15263318 -93.82650322 142.56095205 -88.75 135.0625 C-87.33360212 132.9538187 -85.91828441 130.84441155 -84.50390625 128.734375 C-84.13807938 128.18904617 -83.7722525 127.64371735 -83.39533997 127.0818634 C-79.11231423 120.68963995 -74.89876625 114.25212992 -70.6875 107.8125 C-69.88362857 106.58382013 -69.07975486 105.35514175 -68.27587891 104.12646484 C-66.65505228 101.64868834 -65.03468343 99.17061313 -63.41455078 96.69238281 C-59.87948238 91.2855563 -56.33916993 85.88216571 -52.79873657 80.47885132 C-51.62118632 78.68167958 -50.44376638 76.88442252 -49.26635742 75.0871582 C-42.91168897 65.38776422 -36.54988906 55.69305744 -30.18667603 45.99926758 C-22.73882131 34.65300105 -15.29848024 23.30182933 -7.86328125 11.94726562 C-7.48225754 11.3654805 -7.10123383 10.78369537 -6.70866394 10.1842804 C-5.68498874 8.62121034 -4.66145863 7.05804527 -3.63793945 5.49487305 C-2.43237298 3.65858093 -1.2184933 1.82773995 0 0 Z " fill="#C45A5A" transform="translate(161,18)"/>
</svg>
